<svg width="360" height="640" xmlns="http://www.w3.org/2000/svg">
  <defs>
    <linearGradient id="bgGradient" x1="0%" y1="0%" x2="100%" y2="100%">
      <stop offset="0%" style="stop-color:#EFF6FF;stop-opacity:1" />
      <stop offset="100%" style="stop-color:#E0E7FF;stop-opacity:1" />
    </linearGradient>
    <linearGradient id="titleGradient" x1="0%" y1="0%" x2="100%" y2="0%">
      <stop offset="0%" style="stop-color:#5E9BFF;stop-opacity:1" />
      <stop offset="100%" style="stop-color:#4A7DD9;stop-opacity:1" />
    </linearGradient>
  </defs>
  <rect width="360" height="640" fill="url(#bgGradient)"/>
  <rect width="360" height="32" fill="url(#titleGradient)"/>
  <circle cx="16" cy="16" r="10" fill="white"/>
  <text x="27" y="21" font-family="Arial" font-size="16" font-weight="bold" fill="#5E9BFF">F</text>
  <text x="42" y="21" font-family="Arial" font-size="14" fill="white">FocusZone</text>
  <rect x="304" y="10" width="24" height="12" rx="3" fill="rgba(255,255,255,0.2)"/>
  <line x1="308" y1="16" x2="324" y2="16" stroke="white" stroke-width="2"/>
  <rect x="332" y="10" width="24" height="12" rx="3" fill="rgba(255,0,0,0.3)"/>
  <line x1="338" y1="13" x2="350" y2="19" stroke="white" stroke-width="2"/>
  <line x1="350" y1="13" x2="338" y2="19" stroke="white" stroke-width="2"/>
  <circle cx="180" cy="200" r="100" fill="none" stroke="#E5E7EB" stroke-width="8"/>
  <circle cx="180" cy="200" r="100" fill="none" stroke="#5E9BFF" stroke-width="8" 
          stroke-dasharray="628" stroke-dashoffset="157" 
          transform="rotate(-90 180 200)" stroke-linecap="round"/>
  <text x="180" y="195" font-family="Arial" font-size="48" font-weight="bold" 
        fill="#1F2937" text-anchor="middle">18:45</text>
  <text x="180" y="220" font-family="Arial" font-size="14" 
        fill="#6B7280" text-anchor="middle">专注中...</text>
  <text x="180" y="330" font-family="Arial" font-size="12" 
        fill="#6B7280" text-anchor="middle">今日已专注</text>
  <text x="180" y="355" font-family="Arial" font-size="24" font-weight="bold" 
        fill="#5E9BFF" text-anchor="middle">2小时15分钟</text>
  <text x="180" y="375" font-family="Arial" font-size="11" 
        fill="#9CA3AF" text-anchor="middle">共 5 次专注</text>
  <text x="32" y="415" font-family="Arial" font-size="12" font-weight="500" 
        fill="#374151">目标时长</text>
  <rect x="32" y="425" width="70" height="32" rx="8" fill="#E5E7EB"/>
  <text x="67" y="446" font-family="Arial" font-size="13" font-weight="500" 
        fill="#374151" text-anchor="middle">15分</text>
  <rect x="110" y="425" width="70" height="32" rx="8" fill="#5E9BFF"/>
  <text x="145" y="446" font-family="Arial" font-size="13" font-weight="500" 
        fill="white" text-anchor="middle">25分</text>
  <rect x="188" y="425" width="70" height="32" rx="8" fill="#E5E7EB"/>
  <text x="223" y="446" font-family="Arial" font-size="13" font-weight="500" 
        fill="#374151" text-anchor="middle">45分</text>
  <rect x="266" y="425" width="70" height="32" rx="8" fill="#E5E7EB"/>
  <text x="301" y="446" font-family="Arial" font-size="13" font-weight="500" 
        fill="#374151" text-anchor="middle">60分</text>
  <text x="32" y="480" font-family="Arial" font-size="12" font-weight="500" 
        fill="#374151">自定义时长（分钟）</text>
  <rect x="32" y="490" width="296" height="36" rx="8" fill="white" stroke="#D1D5DB"/>
  <text x="180" y="513" font-family="Arial" font-size="14" 
        fill="#6B7280" text-anchor="middle">25</text>
  <rect x="32" y="545" width="140" height="44" rx="8" fill="#EAB308"/>
  <text x="102" y="572" font-family="Arial" font-size="15" font-weight="500" 
        fill="white" text-anchor="middle">暂停</text>
  <rect x="184" y="545" width="144" height="44" rx="8" fill="#EF4444"/>
  <text x="256" y="572" font-family="Arial" font-size="15" font-weight="500" 
        fill="white" text-anchor="middle">结束</text>
</svg>
